<svg xmlns="http://www.w3.org/2000/svg" viewBox="0 0 512 512">
  <circle cx="256" cy="256" r="230" fill="#000"/>
  <path fill="#fff" d="M131.7 211.32v20.83c1.7.46 3.39.85 5.09 1.16 1.7.31 3.47.46 5.32.46 5.86 0 11.19-1.35 15.97-4.05 4.78-2.7 8.68-6.37 11.69-10.99 3.01-4.63 4.67-9.8 4.98-15.51H156.7c-.46 3.55-2.08 6.52-4.86 8.91-2.78 2.39-6.02 3.59-9.72 3.59-4.32 0-7.79-1.46-10.42-4.4ZM87.25 203.22h18.05v91.66H87.25zM110.63 181.93c3.09-5.09 7.21-9.22 12.38-12.38 5.17-3.16 10.84-4.9 17.01-5.21v-18.05c-9.57.31-18.29 2.86-26.16 7.64C105.99 158.72 99.7 165 95 172.79c-4.71 7.79-7.29 16.55-7.75 26.27h18.05c.46-6.33 2.24-12.04 5.32-17.13Z"/>
  <path fill="#fff" d="M131.7 190.72c2.32-2.32 5.09-3.7 8.33-4.17v-18.06c-5.4.31-10.38 1.85-14.93 4.63-4.55 2.78-8.22 6.41-10.99 10.88-2.78 4.48-4.32 9.49-4.63 15.05h18.05c.46-3.24 1.85-6.02 4.17-8.33ZM173.71 181.93c3.16 5.09 4.9 10.8 5.21 17.13h18.05c-.31-9.72-2.86-18.48-7.64-26.27-4.79-7.79-11.08-14.08-18.87-18.86-7.79-4.78-16.55-7.33-26.27-7.64v18.05c6.33.31 12.04 2.05 17.13 5.21s9.22 7.29 12.38 12.38ZM109.48 203.22h18.05v91.66h-18.05z"/>
  <path fill="#fff" d="M156.7 199.06h18.05c-.31-5.55-1.85-10.57-4.63-15.05-2.78-4.47-6.4-8.1-10.88-10.88-4.48-2.78-9.49-4.32-15.05-4.63v18.06c3.24.46 6.02 1.85 8.33 4.17 2.32 2.32 3.7 5.09 4.17 8.33ZM235.86 170.35c5.4-3.55 11.42-5.56 18.06-6.02v-18.05c-2.16.16-4.28.39-6.37.69-2.08.31-4.13.69-6.13 1.16v-40.74h-18.05v76.62c2.93-5.55 7.1-10.11 12.5-13.66ZM270.58 203.22h18.05V256h-18.05z"/>
  <path fill="#fff" d="M245.58 190.72c2.32-2.32 5.09-3.7 8.33-4.17v-18.06c-5.4.31-10.38 1.85-14.93 4.63-4.55 2.78-8.22 6.41-10.99 10.88-2.78 4.48-4.32 9.49-4.63 15.05h18.05c.46-3.24 1.85-6.02 4.17-8.33ZM201.14 107.39h18.05v91.66h-18.05zM270.58 199.06h18.05c-.31-5.55-1.85-10.57-4.63-15.05-2.78-4.47-6.4-8.1-10.88-10.88-4.48-2.78-9.49-4.32-15.05-4.63v18.06c3.24.46 6.02 1.85 8.33 4.17 2.32 2.32 3.7 5.09 4.17 8.33Z"/>
  <path fill="#fff" d="M284.36 153.92c-7.79-4.78-16.55-7.33-26.27-7.64v18.05c6.33.31 12.04 2.05 17.13 5.21s9.22 7.29 12.38 12.38c3.16 5.09 4.9 10.8 5.21 17.13h18.05c-.31-9.72-2.86-18.48-7.64-26.27-4.79-7.79-11.08-14.08-18.87-18.86ZM292.8 203.22h18.05V256H292.8zM367.8 186.56V168.5c-5.4.31-10.38 1.85-14.93 4.63-4.55 2.78-8.22 6.41-10.99 10.88-2.78 4.48-4.32 9.49-4.63 15.05h18.05c.46-3.24 1.85-6.02 4.17-8.33s5.09-3.7 8.33-4.17ZM315.03 203.22h18.05v91.66h-18.05zM337.25 203.22h18.05v91.66h-18.05z"/>
  <path fill="#fff" d="M350.79 169.54c5.17-3.16 10.84-4.9 17.01-5.21v-18.05c-9.57.31-18.29 2.86-26.16 7.64-7.87 4.79-14.16 11.07-18.86 18.86-4.71 7.79-7.29 16.55-7.75 26.27h18.05c.46-6.33 2.24-12.04 5.32-17.13 3.09-5.09 7.21-9.22 12.38-12.38ZM359.47 211.32v20.83c1.7.46 3.39.85 5.09 1.16 1.7.31 3.47.46 5.32.46 5.86 0 11.19-1.35 15.97-4.05 4.78-2.7 8.68-6.37 11.69-10.99 3.01-4.63 4.67-9.8 4.98-15.51h-18.05c-.46 3.55-2.08 6.52-4.86 8.91-2.78 2.39-6.02 3.59-9.72 3.59-4.32 0-7.79-1.46-10.42-4.4Z"/>
  <path fill="#fff" d="M401.14 220.82c-3.4 5.25-7.79 9.41-13.19 12.5-5.4 3.09-11.42 4.63-18.05 4.63-1.85 0-3.63-.12-5.32-.35-1.7-.23-3.4-.58-5.09-1.04v18.52c1.7.31 3.43.54 5.21.69 1.77.16 3.51.23 5.21.23 10.03 0 19.1-2.35 27.2-7.06 8.1-4.71 14.66-11.03 19.68-18.98 5.01-7.95 7.67-16.86 7.99-26.74h-18.05c-.31 6.48-2.16 12.35-5.56 17.59ZM401.48 181.93c3.16 5.09 4.9 10.8 5.21 17.13h18.05c-.31-9.72-2.86-18.48-7.64-26.27-4.79-7.79-11.08-14.08-18.87-18.86-7.79-4.78-16.55-7.33-26.27-7.64v18.05c6.33.31 12.04 2.05 17.13 5.21s9.22 7.29 12.38 12.38Z"/>
  <path fill="#fff" d="M384.47 199.06h18.05c-.31-5.55-1.85-10.57-4.63-15.05-2.78-4.47-6.4-8.1-10.88-10.88-4.48-2.78-9.49-4.32-15.05-4.63v18.06c3.24.46 6.02 1.85 8.33 4.17 2.32 2.32 3.7 5.09 4.17 8.33ZM201.14 203.22h18.05v144.44h-18.05zM223.36 203.22h18.05v144.44h-18.05zM270.58 347.66h18.05c-.31-5.71-1.97-10.88-4.98-15.51-3.01-4.63-6.91-8.29-11.69-10.99-4.79-2.7-10.11-4.05-15.97-4.05-1.85 0-3.63.16-5.32.46-1.7.31-3.4.69-5.09 1.16v20.83c2.62-2.93 6.09-4.4 10.42-4.4 3.7 0 6.94 1.2 9.72 3.59 2.78 2.39 4.4 5.36 4.86 8.91ZM241.42 351.83h-18.05c.31 5.4 1.85 10.38 4.63 14.93 2.78 4.55 6.44 8.22 10.99 10.99 4.55 2.78 9.53 4.32 14.93 4.63v-18.05c-3.24-.46-6.02-1.85-8.33-4.17s-3.7-5.09-4.17-8.33Z"/>
  <path fill="#fff" d="M224.52 368.84c-3.09-5.17-4.86-10.84-5.32-17.01h-18.05c.46 9.57 3.05 18.29 7.75 26.16 4.71 7.87 10.99 14.16 18.86 18.86 7.87 4.71 16.59 7.29 26.16 7.75v-18.05c-6.17-.46-11.85-2.24-17.01-5.32-5.17-3.09-9.3-7.21-12.38-12.38ZM266.42 360.16c-2.31 2.32-5.09 3.7-8.33 4.17v18.05c5.55-.31 10.57-1.85 15.05-4.63 4.47-2.78 8.1-6.44 10.88-10.99 2.78-4.55 4.32-9.53 4.63-14.93H270.6c-.46 3.24-1.85 6.02-4.17 8.33ZM283.2 301.95c-8.1-4.71-17.17-7.06-27.2-7.06-1.7 0-3.44.08-5.21.23-1.78.16-3.51.39-5.21.69v18.52c1.7-.46 3.39-.81 5.09-1.04 1.7-.23 3.47-.35 5.32-.35 6.63 0 12.65 1.54 18.05 4.63s9.8 7.26 13.19 12.5c3.39 5.25 5.24 11.11 5.56 17.59h18.05c-.31-9.87-2.97-18.79-7.99-26.74-5.02-7.95-11.57-14.27-19.68-18.98Z"/>
  <path fill="#fff" d="M287.6 368.84c-3.16 5.17-7.29 9.3-12.38 12.38-5.09 3.09-10.8 4.86-17.13 5.32v18.05c9.72-.46 18.48-3.05 26.27-7.75 7.79-4.71 14.08-10.99 18.87-18.86 4.78-7.87 7.33-16.59 7.64-26.16h-18.05c-.31 6.17-2.05 11.85-5.21 17.01ZM173.71 368.84c-3.17 5.17-7.29 9.3-12.38 12.38-5.09 3.09-10.8 4.86-17.13 5.32v18.05c9.72-.46 18.48-3.05 26.27-7.75 7.79-4.71 14.08-10.99 18.87-18.86 4.78-7.87 7.33-16.59 7.64-26.16h-18.05c-.31 6.17-2.05 11.85-5.21 17.01ZM110.63 368.84c-3.09-5.17-4.86-10.84-5.32-17.01H87.26c.46 9.57 3.05 18.29 7.75 26.16 4.71 7.87 10.99 14.16 18.86 18.86 7.87 4.71 16.59 7.29 26.16 7.75v-18.05c-6.17-.46-11.85-2.24-17.01-5.32-5.17-3.09-9.3-7.21-12.38-12.38Z"/>
  <path fill="#fff" d="M127.53 351.83h-18.05c.31 5.4 1.85 10.38 4.63 14.93 2.78 4.55 6.44 8.22 10.99 10.99 4.55 2.78 9.53 4.32 14.93 4.63v-18.05c-3.24-.46-6.02-1.85-8.33-4.17-2.32-2.32-3.7-5.09-4.17-8.33ZM144.2 364.33v18.05c5.55-.31 10.57-1.85 15.05-4.63 4.47-2.78 8.1-6.44 10.88-10.99 2.78-4.55 4.32-9.53 4.63-14.93h-18.05c-.46 3.24-1.85 6.02-4.17 8.33-2.31 2.32-5.09 3.7-8.33 4.17ZM95.36 320.93c-4.94 7.95-7.64 16.86-8.1 26.74h18.05c.46-6.48 2.35-12.34 5.67-17.59 3.32-5.24 7.71-9.41 13.19-12.5 5.48-3.08 11.46-4.63 17.94-4.63 1.85 0 3.66.12 5.44.35 1.77.23 3.43.58 4.98 1.04v-18.52c-1.7-.31-3.44-.54-5.21-.69-1.78-.15-3.51-.23-5.21-.23-9.88 0-18.91 2.35-27.08 7.06-8.18 4.71-14.74 11.03-19.68 18.98Z"/>
  <path fill="#fff" d="M152.53 339.56v-20.83c-1.54-.46-3.2-.85-4.98-1.16-1.78-.31-3.59-.46-5.44-.46-5.71 0-11 1.35-15.86 4.05-4.86 2.7-8.76 6.37-11.69 10.99-2.93 4.63-4.63 9.8-5.09 15.51h18.05c.46-3.55 2.08-6.52 4.86-8.91 2.78-2.39 6.02-3.59 9.72-3.59 4.32 0 7.79 1.47 10.42 4.4ZM174.75 250.24c-1.12.75-2.26 1.47-3.43 2.15-4.57 2.66-9.46 4.61-14.62 5.88v89.38h18.05v-97.42ZM178.92 247.16v100.5h18.05V223.03c-1.25 3.14-2.78 6.17-4.6 9.06-3.67 5.82-8.19 10.85-13.45 15.07ZM188.99 229.96c5.01-7.95 7.67-16.86 7.99-26.74h-18.05c-.31 6.48-2.16 12.35-5.56 17.59-3.4 5.25-7.79 9.41-13.19 12.5-5.4 3.09-11.42 4.63-18.05 4.63-1.85 0-3.63-.12-5.32-.35-1.7-.23-3.4-.58-5.09-1.04v18.52c1.7.31 3.43.54 5.21.69 1.77.16 3.51.23 5.21.23 10.03 0 19.1-2.35 27.2-7.06 8.1-4.71 14.66-11.03 19.68-18.98Z"/>
</svg>
